<svg width="135" height="40" viewBox="0 0 135 40" fill="none" xmlns="http://www.w3.org/2000/svg">
<path d="M130.1 40.0004L4.80043 40.0004C4.16773 40.0089 3.53976 39.8905 2.95357 39.6523C2.36738 39.4141 1.83485 39.0608 1.38744 38.6134C0.940015 38.166 0.586767 37.6335 0.348545 37.0473C0.110322 36.4611 -0.00804732 35.8331 0.000424656 35.2004L0.000424656 4.80043C-0.00804732 4.16773 0.110322 3.53976 0.348545 2.95357C0.586767 2.36738 0.940015 1.83485 1.38744 1.38744C1.83485 0.940015 2.36738 0.586767 2.95357 0.348545C3.53976 0.110322 4.16773 -0.00804732 4.80043 0.000424656L130.2 0.000424656C131.473 0.000424656 132.694 0.506137 133.595 1.40631C134.495 2.30649 135 3.52739 135 4.80043V35.3004C134.957 36.5678 134.421 37.7682 133.505 38.646C132.59 39.5238 131.369 40.0098 130.1 40.0004Z" fill="#A6A6A6"/>
<path d="M130.099 39.0004L4.79944 39.0004C3.79161 39.0004 2.82507 38.6001 2.11243 37.8874C1.39979 37.1748 0.999435 36.2083 0.999435 35.2004L0.999435 4.80043C0.999435 3.7926 1.39979 2.82606 2.11243 2.11342C2.82507 1.40078 3.79161 1.00043 4.79944 1.00043L130.199 1.00043C131.207 1.00043 132.174 1.40078 132.886 2.11342C133.599 2.82606 133.999 3.7926 133.999 4.80043V35.3004C133.94 36.2968 133.504 37.2333 132.78 37.9202C132.056 38.6072 131.098 38.9933 130.099 39.0004Z" fill="black"/>
<path d="M13.8814 13H13.0509V9.30271H13.8814V13ZM13 8.3418C13 8.21453 13.0403 8.10847 13.1209 8.02362C13.2036 7.93877 13.3203 7.89635 13.4709 7.89635C13.6194 7.89635 13.735 7.93877 13.8177 8.02362C13.9005 8.10847 13.9418 8.21453 13.9418 8.3418C13.9418 8.46696 13.9005 8.57089 13.8177 8.65362C13.735 8.73635 13.6194 8.77771 13.4709 8.77771C13.3203 8.77771 13.2036 8.73635 13.1209 8.65362C13.0403 8.57089 13 8.46696 13 8.3418Z" fill="white"/>
<path d="M18.8415 10.6423C18.8415 11.1301 18.7566 11.5586 18.5869 11.9277C18.4193 12.2947 18.1786 12.5768 17.8647 12.7741C17.5528 12.9692 17.1933 13.0668 16.786 13.0668C16.3809 13.0668 16.0203 12.9692 15.7042 12.7741C15.3903 12.5768 15.1474 12.2957 14.9756 11.9309C14.8037 11.566 14.7168 11.145 14.7147 10.6677V10.3877C14.7147 9.90196 14.8006 9.47347 14.9724 9.10226C15.1442 8.73105 15.386 8.4468 15.6978 8.24953C16.0118 8.05226 16.3724 7.95362 16.7797 7.95362C17.1848 7.95362 17.5433 8.0512 17.8551 8.24635C18.169 8.4415 18.4109 8.72256 18.5806 9.08953C18.7524 9.45438 18.8393 9.87968 18.8415 10.3654V10.6423ZM17.976 10.3813C17.976 9.82983 17.8721 9.40771 17.6642 9.11499C17.4563 8.82014 17.1604 8.67271 16.7765 8.67271C16.4031 8.67271 16.1104 8.81908 15.8983 9.1118C15.6883 9.40453 15.5812 9.81923 15.5769 10.3559V10.6423C15.5769 11.1895 15.683 11.6127 15.8951 11.9118C16.1093 12.2088 16.4063 12.3573 16.786 12.3573C17.1678 12.3573 17.4616 12.212 17.6674 11.9213C17.8731 11.6286 17.976 11.2023 17.976 10.6423V10.3813Z" fill="white"/>
<path d="M22.3031 11.7177C22.3031 11.4992 22.2257 11.3306 22.0708 11.2118C21.9181 11.093 21.6413 10.9732 21.2404 10.8523C20.8395 10.7313 20.5213 10.5977 20.2858 10.4513C19.8319 10.165 19.6049 9.79271 19.6049 9.33453C19.6049 8.93362 19.7683 8.60377 20.0949 8.34499C20.4216 8.08408 20.8458 7.95362 21.3677 7.95362C21.7134 7.95362 22.0221 8.01832 22.2936 8.14771C22.5651 8.27499 22.7783 8.45635 22.9331 8.6918C23.088 8.92726 23.1654 9.18817 23.1654 9.47453H22.3031C22.3031 9.21574 22.2214 9.01317 22.0581 8.8668C21.8969 8.71832 21.6646 8.64408 21.3613 8.64408C21.0792 8.64408 20.8596 8.70453 20.7027 8.82544C20.5478 8.94635 20.4704 9.11499 20.4704 9.33135C20.4704 9.51377 20.5542 9.6665 20.7218 9.78953C20.8914 9.91044 21.1693 10.0292 21.5554 10.1459C21.9436 10.2604 22.2543 10.3909 22.4877 10.5373C22.7231 10.6836 22.8949 10.8523 23.0031 11.0432C23.1134 11.2341 23.1686 11.4568 23.1686 11.7113C23.1686 12.1271 23.0095 12.457 22.6913 12.7009C22.3752 12.9448 21.9446 13.0668 21.3995 13.0668C21.0389 13.0668 20.7069 13.001 20.4036 12.8695C20.1024 12.7359 19.868 12.5524 19.7004 12.3191C19.5328 12.0836 19.449 11.8089 19.449 11.495H20.3145C20.3145 11.7792 20.4078 11.9988 20.5945 12.1536C20.7811 12.3085 21.0495 12.3859 21.3995 12.3859C21.7007 12.3859 21.9266 12.3254 22.0772 12.2045C22.2278 12.0815 22.3031 11.9192 22.3031 11.7177Z" fill="white"/>
<path d="M27.2344 14.7595C27.0647 14.7595 26.9014 14.7394 26.7444 14.6991C26.5874 14.6588 26.4389 14.6015 26.2989 14.5273C26.1611 14.453 26.0327 14.3618 25.9139 14.2536C25.7973 14.1454 25.6954 14.0235 25.6085 13.8877C25.5067 13.7223 25.4282 13.5377 25.373 13.3341C25.3179 13.1326 25.2903 12.9215 25.2903 12.7009C25.2903 12.5609 25.2988 12.4251 25.3157 12.2936C25.3327 12.1621 25.3592 12.0274 25.3953 11.8895C25.4335 11.7517 25.4823 11.6074 25.5417 11.4568C25.6032 11.3062 25.6774 11.1407 25.7644 10.9604L26.4803 11.3009C26.4039 11.4557 26.3403 11.5947 26.2894 11.7177C26.2385 11.8407 26.1971 11.9574 26.1653 12.0677C26.1335 12.1759 26.1101 12.2809 26.0953 12.3827C26.0826 12.4824 26.0762 12.5874 26.0762 12.6977C26.0762 12.842 26.0942 12.9798 26.1303 13.1113C26.1664 13.245 26.2162 13.3648 26.2798 13.4709C26.3817 13.6215 26.5153 13.7413 26.6807 13.8304C26.8483 13.9217 27.0329 13.9673 27.2344 13.9673H27.8803C28.1051 13.9673 28.2876 13.9439 28.4276 13.8973C28.5697 13.8506 28.68 13.7838 28.7585 13.6968C28.837 13.612 28.89 13.5091 28.9176 13.3882C28.9473 13.2673 28.9621 13.1336 28.9621 12.9873V10.8459H29.7544V12.9873C29.7544 13.5791 29.5974 14.0224 29.2835 14.3173C28.9717 14.6121 28.5039 14.7595 27.8803 14.7595H27.2344ZM27.1707 10.5977L27.7435 10.0186L28.3289 10.6041L27.7498 11.1832L27.1707 10.5977Z" fill="white"/>
<path d="M31.4808 13.0477H30.6885V8.45953H31.4808V13.0477Z" fill="white"/>
<path d="M34.5245 13.0477H34.4036C34.3167 13.0477 34.2339 13.0424 34.1555 13.0318C34.0791 13.0212 34.0038 12.9915 33.9295 12.9427C33.9041 13.2163 33.8415 13.4645 33.7418 13.6873C33.6421 13.91 33.5085 14.0998 33.3409 14.2568C33.1755 14.4159 32.9771 14.5389 32.7459 14.6259C32.5147 14.7129 32.2549 14.7563 31.9664 14.7563H31.5686V13.9641H31.9664C32.17 13.9641 32.3461 13.9429 32.4945 13.9004C32.643 13.858 32.765 13.7901 32.8605 13.6968C32.9559 13.6035 33.027 13.4815 33.0736 13.3309C33.1203 13.1824 33.1436 13.001 33.1436 12.7868V10.8491H33.9359V11.8004C33.9359 11.898 33.9561 11.9765 33.9964 12.0359C34.0388 12.0953 34.0865 12.142 34.1395 12.1759C34.1947 12.2077 34.2477 12.2289 34.2986 12.2395C34.3495 12.2501 34.3845 12.2554 34.4036 12.2554H34.5245V13.0477Z" fill="white"/>
<path d="M36.7357 10.375C36.7399 10.3898 36.7484 10.4248 36.7611 10.48C36.776 10.5351 36.7919 10.603 36.8089 10.6836C36.8258 10.7621 36.8428 10.8501 36.8598 10.9477C36.8789 11.0453 36.8958 11.1439 36.9107 11.2436C36.9277 11.3412 36.9404 11.4367 36.9489 11.53C36.9595 11.6233 36.9648 11.705 36.9648 11.775C36.9648 11.9935 36.9287 12.1833 36.8566 12.3445C36.7845 12.5036 36.6901 12.6351 36.5734 12.7391C36.4568 12.843 36.3252 12.9204 36.1789 12.9713C36.0346 13.0223 35.8893 13.0477 35.743 13.0477H34.3966V12.2554H35.7652C35.7907 12.2554 35.8268 12.2523 35.8734 12.2459C35.9222 12.2374 35.9699 12.2173 36.0166 12.1854C36.0654 12.1536 36.1078 12.1059 36.1439 12.0423C36.1799 11.9765 36.198 11.8874 36.198 11.775C36.198 11.7283 36.1937 11.6721 36.1852 11.6063C36.1789 11.5385 36.1693 11.4663 36.1566 11.39C36.1439 11.3136 36.129 11.2362 36.1121 11.1577C36.0972 11.0771 36.0824 11.0018 36.0675 10.9318C36.0527 10.8597 36.0378 10.795 36.023 10.7377C36.0081 10.6783 35.9965 10.6327 35.988 10.6009L36.7357 10.375ZM35.3452 14.155L35.918 13.5759L36.5034 14.1613L35.9243 14.7404L35.3452 14.155Z" fill="white"/>
<path d="M39.4913 12.8536C39.4786 13.1463 39.4245 13.4094 39.3291 13.6427C39.2336 13.8782 39.1021 14.0776 38.9345 14.2409C38.7669 14.4063 38.5644 14.5336 38.3268 14.6227C38.0892 14.7118 37.8209 14.7563 37.5218 14.7563H37.1272V13.9641H37.5218C37.7254 13.9641 37.9015 13.9429 38.05 13.9004C38.1984 13.858 38.3204 13.7901 38.4159 13.6968C38.5113 13.6035 38.5824 13.4815 38.629 13.3309C38.6757 13.1824 38.699 13.001 38.699 12.7868V10.8491H39.4913V12.8536Z" fill="white"/>
<path d="M41.8394 13.0477C41.606 13.0477 41.4056 13.0329 41.238 13.0032C41.0704 12.9756 40.9294 12.9342 40.8148 12.8791C40.7003 12.8218 40.608 12.7497 40.538 12.6627C40.4701 12.5757 40.4182 12.4739 40.3821 12.3573C40.346 12.2406 40.3217 12.1091 40.3089 11.9627C40.2983 11.8142 40.293 11.6509 40.293 11.4727V8.45953H41.0853V11.4727C41.0853 11.6424 41.0906 11.7782 41.1012 11.88C41.1139 11.9818 41.1447 12.0613 41.1935 12.1186C41.2444 12.1738 41.3197 12.2109 41.4194 12.23C41.5212 12.247 41.6612 12.2554 41.8394 12.2554V13.0477Z" fill="white"/>
<path d="M41.712 13.0477V12.2554H43.5734C43.6073 12.2554 43.654 12.2544 43.7134 12.2523C43.7728 12.248 43.8311 12.2395 43.8884 12.2268C43.9457 12.212 43.9945 12.1918 44.0348 12.1663C44.0772 12.1388 44.0984 12.1017 44.0984 12.055C44.0984 11.9638 44.0634 11.8535 43.9934 11.7241C43.9255 11.5947 43.8375 11.4568 43.7293 11.3104C43.6211 11.1641 43.4992 11.0167 43.3634 10.8682C43.2298 10.7176 43.0961 10.5765 42.9625 10.445C42.831 10.3113 42.7069 10.1936 42.5902 10.0918C42.4735 9.98999 42.3802 9.91362 42.3102 9.86271L42.3739 9.14362L45.142 7.87726L45.4316 8.57089L43.1025 9.59862C43.1831 9.67711 43.2732 9.7662 43.3729 9.86589C43.4748 9.96559 43.5787 10.0717 43.6848 10.1841C43.7908 10.2944 43.8958 10.41 43.9998 10.5309C44.1058 10.6497 44.2045 10.7695 44.2957 10.8904C44.389 11.0092 44.4717 11.1259 44.5438 11.2404C44.616 11.355 44.6722 11.4632 44.7125 11.565C44.7485 11.6541 44.774 11.74 44.7889 11.8227C44.8037 11.9054 44.8111 11.9807 44.8111 12.0486C44.8111 12.1335 44.8026 12.2077 44.7857 12.2713C44.7708 12.335 44.7538 12.3891 44.7348 12.4336C44.7093 12.4909 44.6701 12.5556 44.617 12.6277C44.564 12.6998 44.4898 12.7667 44.3943 12.8282C44.301 12.8897 44.1822 12.9417 44.0379 12.9841C43.8958 13.0265 43.7229 13.0477 43.5193 13.0477H41.712Z" fill="white"/>
<path d="M50.1386 14.0054C50.3317 14.0054 50.4982 13.9927 50.6382 13.9673C50.7803 13.9439 50.897 13.9015 50.9882 13.84C51.0794 13.7806 51.1473 13.7 51.1918 13.5982C51.2385 13.4963 51.2629 13.368 51.265 13.2132C51.2353 13.2047 51.1876 13.192 51.1218 13.175C51.0582 13.158 50.9818 13.1379 50.8927 13.1145C50.8058 13.0912 50.7103 13.0657 50.6064 13.0382C50.5046 13.0106 50.4006 12.983 50.2946 12.9554C50.1885 12.9257 50.0835 12.8982 49.9796 12.8727C49.8777 12.8451 49.7833 12.8207 49.6964 12.7995C49.6412 12.6595 49.5999 12.5238 49.5723 12.3923C49.5468 12.2586 49.5341 12.1282 49.5341 12.0009C49.5341 11.7591 49.5786 11.531 49.6677 11.3168C49.7568 11.1004 49.8841 10.9127 50.0496 10.7536C50.215 10.5924 50.4165 10.4651 50.6541 10.3718C50.8938 10.2785 51.1632 10.2318 51.4623 10.2318C51.5683 10.2318 51.6733 10.2403 51.7773 10.2573C51.8833 10.2742 52.0032 10.3007 52.1368 10.3368L51.9364 11.1004C51.8367 11.0707 51.7497 11.0495 51.6755 11.0368C51.6012 11.022 51.5249 11.0145 51.4464 11.0145C51.2873 11.0145 51.1388 11.0379 51.0009 11.0845C50.8652 11.1291 50.7464 11.1948 50.6446 11.2818C50.5449 11.3688 50.4653 11.4748 50.4059 11.6C50.3486 11.7251 50.32 11.8673 50.32 12.0263C50.32 12.0391 50.32 12.0529 50.32 12.0677C50.32 12.0804 50.3211 12.0932 50.3232 12.1059L51.44 12.3923C51.6436 12.4432 51.7911 12.5301 51.8823 12.6532C51.9735 12.7741 52.0191 12.9247 52.0191 13.105C52.0191 13.3998 51.9852 13.6533 51.9173 13.8654C51.8494 14.0797 51.7402 14.2557 51.5896 14.3936C51.4411 14.5336 51.247 14.6365 51.0073 14.7023C50.7697 14.7701 50.4802 14.8041 50.1386 14.8041H49.4673C49.2933 14.8041 49.1268 14.7839 48.9677 14.7436C48.8086 14.7033 48.6591 14.645 48.5191 14.5686C48.3791 14.4944 48.2508 14.4032 48.1341 14.295C48.0174 14.1889 47.9146 14.068 47.8255 13.9323C47.6155 13.5929 47.5105 13.1951 47.5105 12.7391C47.5105 12.5991 47.52 12.4601 47.5391 12.3223C47.5582 12.1844 47.5879 12.0433 47.6282 11.8991C47.6706 11.7527 47.7236 11.6 47.7873 11.4409C47.8509 11.2818 47.9273 11.11 48.0164 10.9254L48.7227 11.2659C48.6485 11.4229 48.5849 11.5671 48.5318 11.6986C48.4809 11.828 48.4374 11.951 48.4014 12.0677C48.3674 12.1823 48.342 12.2936 48.325 12.4018C48.3102 12.5079 48.3027 12.615 48.3027 12.7232C48.3027 13.0307 48.3706 13.2917 48.5064 13.5059C48.6039 13.6671 48.7365 13.7901 48.9041 13.875C49.0738 13.962 49.2615 14.0054 49.4673 14.0054H50.1386Z" fill="white"/>
<path d="M53.847 13.0477H53.0547V8.45953H53.847V13.0477Z" fill="white"/>
<path d="M56.8908 13.0477H56.7698C56.6829 13.0477 56.6001 13.0424 56.5217 13.0318C56.4453 13.0212 56.37 12.9915 56.2958 12.9427C56.2703 13.2163 56.2077 13.4645 56.108 13.6873C56.0083 13.91 55.8747 14.0998 55.7071 14.2568C55.5417 14.4159 55.3433 14.5389 55.1121 14.6259C54.8809 14.7129 54.6211 14.7563 54.3326 14.7563H53.9348V13.9641H54.3326C54.5362 13.9641 54.7123 13.9429 54.8608 13.9004C55.0092 13.858 55.1312 13.7901 55.2267 13.6968C55.3221 13.6035 55.3932 13.4815 55.4398 13.3309C55.4865 13.1824 55.5098 13.001 55.5098 12.7868V10.8491H56.3021V11.8004C56.3021 11.898 56.3223 11.9765 56.3626 12.0359C56.405 12.0953 56.4527 12.142 56.5058 12.1759C56.5609 12.2077 56.6139 12.2289 56.6648 12.2395C56.7158 12.2501 56.7508 12.2554 56.7698 12.2554H56.8908V13.0477Z" fill="white"/>
<path d="M59.1019 10.375C59.1061 10.3898 59.1146 10.4248 59.1274 10.48C59.1422 10.5351 59.1581 10.603 59.1751 10.6836C59.1921 10.7621 59.209 10.8501 59.226 10.9477C59.2451 11.0453 59.2621 11.1439 59.2769 11.2436C59.2939 11.3412 59.3066 11.4367 59.3151 11.53C59.3257 11.6233 59.331 11.705 59.331 11.775C59.331 11.9935 59.2949 12.1833 59.2228 12.3445C59.1507 12.5036 59.0563 12.6351 58.9396 12.7391C58.823 12.843 58.6914 12.9204 58.5451 12.9713C58.4008 13.0223 58.2555 13.0477 58.1092 13.0477H56.7628V12.2554H58.1314C58.1569 12.2554 58.193 12.2523 58.2396 12.2459C58.2884 12.2374 58.3361 12.2173 58.3828 12.1854C58.4316 12.1536 58.474 12.1059 58.5101 12.0423C58.5461 11.9765 58.5642 11.8874 58.5642 11.775C58.5642 11.7283 58.5599 11.6721 58.5514 11.6063C58.5451 11.5385 58.5355 11.4663 58.5228 11.39C58.5101 11.3136 58.4952 11.2362 58.4783 11.1577C58.4634 11.0771 58.4486 11.0018 58.4337 10.9318C58.4189 10.8597 58.404 10.795 58.3892 10.7377C58.3743 10.6783 58.3627 10.6327 58.3542 10.6009L59.1019 10.375ZM57.7114 14.155L58.2842 13.5759L58.8696 14.1613L58.2905 14.7404L57.7114 14.155Z" fill="white"/>
<path d="M62.8469 13.0509C62.7663 13.0509 62.6868 13.0467 62.6083 13.0382C62.5298 13.0297 62.4503 13.018 62.3696 13.0032C62.289 12.9883 62.2063 12.9703 62.1215 12.9491C62.0366 12.9257 61.9475 12.9003 61.8542 12.8727L61.4756 12.7582L61.7046 11.9945C61.8892 12.0582 62.0801 12.1144 62.2774 12.1632C62.4768 12.212 62.6645 12.2438 62.8406 12.2586C62.8978 12.2629 62.953 12.265 63.006 12.265C63.1121 12.265 63.2181 12.2533 63.3242 12.23C63.4324 12.2067 63.5087 12.1483 63.5533 12.055C63.5618 12.038 63.566 12.0179 63.566 11.9945C63.566 11.9797 63.5618 11.9563 63.5533 11.9245C63.5448 11.8927 63.5236 11.8524 63.4896 11.8036L62.3028 10.0727L62.971 9.63999L63.1874 9.97408C63.1874 9.9762 63.1906 9.98256 63.1969 9.99317C63.2054 10.0038 63.2202 10.026 63.2415 10.06C63.2648 10.0939 63.2966 10.1427 63.3369 10.2063C63.3793 10.2679 63.4345 10.3495 63.5024 10.4513C63.5703 10.5532 63.653 10.6794 63.7506 10.83C63.8503 10.9785 63.969 11.1567 64.1069 11.3645C64.2151 11.5279 64.2819 11.6965 64.3074 11.8704C64.3137 11.915 64.3169 11.9585 64.3169 12.0009C64.3169 12.1282 64.2915 12.2501 64.2406 12.3668C64.2045 12.4517 64.1557 12.5301 64.0942 12.6023C64.0348 12.6723 63.9648 12.7348 63.8842 12.79C63.7336 12.8939 63.5522 12.965 63.3401 13.0032C63.1619 13.035 62.9975 13.0509 62.8469 13.0509Z" fill="white"/>
<path d="M66.6587 13.0477C66.4254 13.0477 66.2249 13.0329 66.0574 13.0032C65.8898 12.9756 65.7487 12.9342 65.6342 12.8791C65.5196 12.8218 65.4273 12.7497 65.3573 12.6627C65.2895 12.5757 65.2375 12.4739 65.2014 12.3573C65.1654 12.2406 65.141 12.1091 65.1283 11.9627C65.1177 11.8142 65.1123 11.6509 65.1123 11.4727V8.45953H65.9046V11.4727C65.9046 11.6424 65.9099 11.7782 65.9205 11.88C65.9333 11.9818 65.964 12.0613 66.0128 12.1186C66.0637 12.1738 66.139 12.2109 66.2387 12.23C66.3405 12.247 66.4805 12.2554 66.6587 12.2554V13.0477Z" fill="white"/>
<path d="M68.5932 10.2763C68.7905 10.2763 68.9676 10.3029 69.1245 10.3559C69.2815 10.4068 69.4141 10.4832 69.5223 10.585C69.6305 10.6868 69.7132 10.813 69.7705 10.9636C69.8298 11.1121 69.8595 11.285 69.8595 11.4823V11.5013C69.8595 11.601 69.8415 11.7092 69.8055 11.8259C69.7715 11.9426 69.7047 12.0603 69.605 12.1791C69.5074 12.2979 69.3706 12.4113 69.1945 12.5195C69.0206 12.6277 68.7958 12.7232 68.52 12.8059H68.5232C68.4426 12.8335 68.3556 12.8568 68.2623 12.8759C68.1689 12.895 68.0809 12.912 67.9982 12.9268C68.03 13.0265 68.0873 13.1304 68.17 13.2386C68.2527 13.3489 68.3482 13.4539 68.4564 13.5536C68.5645 13.6533 68.6791 13.7424 68.8 13.8209C68.9209 13.9015 69.0376 13.962 69.15 14.0023C69.0673 13.8665 69.0185 13.7286 69.0036 13.5886C68.9973 13.5441 68.9941 13.4995 68.9941 13.455C68.9941 13.3617 69.0089 13.2588 69.0386 13.1463C69.0683 13.036 69.1235 12.9236 69.2041 12.8091C69.2868 12.6945 69.3833 12.5948 69.4936 12.51C69.6061 12.4251 69.7312 12.3594 69.8691 12.3127C69.9879 12.2745 70.1109 12.2554 70.2382 12.2554H70.7282V13.0477H70.2668C70.1671 13.052 70.0812 13.0732 70.0091 13.1113C69.937 13.1495 69.8776 13.1983 69.8309 13.2577C69.7842 13.3171 69.7524 13.385 69.7355 13.4613C69.7248 13.508 69.7195 13.5557 69.7195 13.6045C69.7195 13.6342 69.7227 13.6767 69.7291 13.7318C69.7376 13.7891 69.762 13.857 69.8023 13.9354C69.8447 14.016 69.903 14.0903 69.9773 14.1582L69.7164 14.8009C69.4236 14.8009 69.1426 14.7574 68.8732 14.6704C68.6038 14.5856 68.3588 14.4647 68.1382 14.3077C67.9197 14.1529 67.732 13.9662 67.575 13.7477C67.4202 13.5292 67.3109 13.2885 67.2473 13.0254C67.1264 13.0339 67.0065 13.0392 66.8877 13.0413C66.7689 13.0456 66.6555 13.0477 66.5473 13.0477V12.2554C66.6364 12.2554 66.735 12.2544 66.8432 12.2523C66.9514 12.2501 67.0755 12.2438 67.2155 12.2332C67.2218 12.1123 67.2303 12.002 67.2409 11.9023C67.2536 11.8026 67.2674 11.7092 67.2823 11.6223C67.2992 11.5353 67.3183 11.4536 67.3395 11.3773C67.3608 11.3009 67.3852 11.2256 67.4127 11.1513C67.4827 10.9795 67.5655 10.8374 67.6609 10.725C67.7564 10.6104 67.8571 10.5203 67.9632 10.4545C68.0692 10.3888 68.1764 10.3432 68.2845 10.3177C68.3948 10.2901 68.4977 10.2763 68.5932 10.2763ZM68.5932 11.0654C68.5295 11.0654 68.4617 11.0782 68.3895 11.1036C68.3174 11.1291 68.2495 11.18 68.1859 11.2563C68.1244 11.3327 68.0735 11.4409 68.0332 11.5809C67.9929 11.7188 67.9727 11.9012 67.9727 12.1282C68.1064 12.1133 68.2432 12.09 68.3832 12.0582C68.5253 12.0242 68.6536 11.9807 68.7682 11.9277C68.8827 11.8747 68.9761 11.811 69.0482 11.7368C69.1203 11.6626 69.1564 11.5767 69.1564 11.4791C69.1564 11.3985 69.1405 11.3317 69.1086 11.2786C69.0768 11.2256 69.0344 11.1832 68.9814 11.1513C68.9305 11.1195 68.8711 11.0973 68.8032 11.0845C68.7353 11.0718 68.6653 11.0654 68.5932 11.0654Z" fill="white"/>
<path d="M73.211 12.2554V13.0477H73.0106C72.8303 13.0477 72.6659 13.0233 72.5174 12.9745C72.3689 12.9257 72.2437 12.8536 72.1419 12.7582C72.0231 12.8579 71.8821 12.931 71.7187 12.9777C71.5575 13.0244 71.373 13.0477 71.1651 13.0477H70.6019V12.2554H71.1651C71.2945 12.2554 71.3974 12.2438 71.4737 12.2204C71.5522 12.195 71.6106 12.1642 71.6487 12.1282C71.689 12.0921 71.7145 12.0518 71.7251 12.0073C71.7378 11.9627 71.7442 11.9192 71.7442 11.8768V10.8459H72.5333V11.8545C72.5333 11.95 72.5545 12.0253 72.5969 12.0804C72.6394 12.1335 72.6871 12.1738 72.7401 12.2013C72.7953 12.2268 72.8494 12.2427 72.9024 12.2491C72.9554 12.2533 72.9915 12.2554 73.0106 12.2554H73.211ZM71.3783 9.38226L71.951 8.80317L72.5365 9.38862L71.9574 9.96771L71.3783 9.38226Z" fill="white"/>
<path d="M73.087 12.2554H73.4975C73.6226 12.2554 73.7234 12.2448 73.7998 12.2236C73.8782 12.2024 73.9387 12.1717 73.9811 12.1313C74.0257 12.0889 74.0554 12.038 74.0702 11.9786C74.0851 11.9192 74.0925 11.8513 74.0925 11.775V10.8491H74.8848V11.7591C74.8848 11.9309 74.9261 12.056 75.0089 12.1345C75.0916 12.213 75.222 12.2533 75.4002 12.2554C75.432 12.2533 75.4702 12.247 75.5148 12.2363C75.5614 12.2257 75.606 12.2045 75.6484 12.1727C75.6929 12.1388 75.7301 12.091 75.7598 12.0295C75.7916 11.9659 75.8075 11.881 75.8075 11.775V10.8491H76.5966V11.7591C76.5966 11.933 76.6379 12.0592 76.7207 12.1377C76.8034 12.2162 76.9381 12.2554 77.1248 12.2554C77.1757 12.2554 77.2255 12.248 77.2743 12.2332C77.3252 12.2162 77.3708 12.1897 77.4111 12.1536C77.4514 12.1154 77.4843 12.0667 77.5098 12.0073C77.5352 11.9479 77.5501 11.8747 77.5543 11.7877V10.8491H78.3466V11.7909C78.3508 11.9542 78.4007 12.073 78.4961 12.1473C78.5916 12.2194 78.7379 12.2554 78.9352 12.2554H79.247V13.0477H78.9352C78.7167 13.0477 78.5269 13.0244 78.3657 12.9777C78.2045 12.9289 78.0655 12.8504 77.9489 12.7423C77.8407 12.842 77.7134 12.9183 77.567 12.9713C77.4228 13.0223 77.2754 13.0477 77.1248 13.0477C76.9254 13.0477 76.7504 13.0233 76.5998 12.9745C76.4513 12.9257 76.3187 12.8473 76.202 12.7391C76.0917 12.8367 75.9676 12.912 75.8298 12.965C75.694 13.018 75.5561 13.0456 75.4161 13.0477H75.3938C75.2029 13.0477 75.0332 13.0223 74.8848 12.9713C74.7363 12.9183 74.6069 12.8451 74.4966 12.7518C74.2484 12.9491 73.9154 13.0477 73.4975 13.0477H73.087V12.2554ZM76.1129 9.5318L75.572 10.0791L75.0311 9.53817L75.572 8.99089L76.1129 9.5318ZM77.4779 9.51908L76.9434 10.06L76.3866 9.52544L76.9338 8.97817L77.4779 9.51908ZM76.7748 8.6218L76.2657 9.13089L75.7629 8.62817L76.272 8.11908L76.7748 8.6218Z" fill="white"/>
<path d="M82.5404 12.2554V13.0477H82.0695C81.8892 13.0477 81.7248 13.0233 81.5764 12.9745C81.4279 12.9257 81.3027 12.8536 81.2009 12.7582C81.0821 12.8579 80.941 12.931 80.7777 12.9777C80.6165 13.0244 80.432 13.0477 80.2241 13.0477H79.1232V12.2554H80.2241C80.3535 12.2554 80.4564 12.2438 80.5327 12.2204C80.6112 12.195 80.6695 12.1642 80.7077 12.1282C80.748 12.0921 80.7735 12.0518 80.7841 12.0073C80.7968 11.9627 80.8032 11.9192 80.8032 11.8768V10.8459H81.5923V11.8545C81.5923 11.95 81.6135 12.0253 81.6559 12.0804C81.6983 12.1335 81.746 12.1738 81.7991 12.2013C81.8542 12.2268 81.9083 12.2427 81.9613 12.2491C82.0144 12.2533 82.0504 12.2554 82.0695 12.2554H82.5404ZM81.2677 14.7977L80.7332 14.2568L81.2614 13.7095L81.8086 14.2568L81.2677 14.7977ZM79.9345 14.8009L79.4 14.26L79.925 13.7127L80.4723 14.26L79.9345 14.8009Z" fill="white"/>
<path d="M84.7753 10.375C84.7796 10.3898 84.7881 10.4248 84.8008 10.48C84.8157 10.5351 84.8316 10.603 84.8485 10.6836C84.8655 10.7621 84.8825 10.8501 84.8994 10.9477C84.9185 11.0453 84.9355 11.1439 84.9503 11.2436C84.9673 11.3412 84.98 11.4367 84.9885 11.53C84.9991 11.6233 85.0044 11.705 85.0044 11.775C85.0044 11.9935 84.9684 12.1833 84.8963 12.3445C84.8241 12.5036 84.7297 12.6351 84.6131 12.7391C84.4964 12.843 84.3649 12.9204 84.2185 12.9713C84.0743 13.0223 83.929 13.0477 83.7826 13.0477H82.4113V12.2554H83.8049C83.8303 12.2554 83.8664 12.2523 83.9131 12.2459C83.9619 12.2374 84.0096 12.2173 84.0563 12.1854C84.105 12.1536 84.1475 12.1059 84.1835 12.0423C84.2196 11.9765 84.2376 11.8874 84.2376 11.775C84.2376 11.7283 84.2334 11.6721 84.2249 11.6063C84.2185 11.5385 84.209 11.4663 84.1963 11.39C84.1835 11.3136 84.1687 11.2362 84.1517 11.1577C84.1369 11.0771 84.122 11.0018 84.1072 10.9318C84.0923 10.8597 84.0775 10.795 84.0626 10.7377C84.0478 10.6783 84.0361 10.6327 84.0276 10.6009L84.7753 10.375ZM82.5735 14.0945L83.1144 13.5536L83.6553 14.1009L83.1144 14.6418L82.5735 14.0945ZM83.9003 14.1009L84.4476 13.56L84.9885 14.1073L84.4476 14.6482L83.9003 14.1009ZM83.2672 14.9918L83.7699 14.4891L84.279 14.9982L83.7763 15.5009L83.2672 14.9918Z" fill="white"/>
<path d="M20.8491 26.6818C20.8491 26.8527 20.9073 26.9873 21.0236 27.0854C21.1364 27.1836 21.2855 27.2327 21.4709 27.2327H21.88V29.0218H21.3073L21.1382 29.0109C21.0145 29 20.9145 28.9782 20.8382 28.9454C20.7945 29.7673 20.5618 30.4236 20.14 30.9145C19.8418 31.2564 19.4545 31.5164 18.9782 31.6945C18.5236 31.8618 17.9873 31.9454 17.3691 31.9454H16.5455C15.92 31.9454 15.3564 31.8309 14.8545 31.6018C14.2836 31.34 13.8382 30.96 13.5182 30.4618C13.1727 29.9091 13 29.2673 13 28.5364C13 28.4454 13.0018 28.3545 13.0055 28.2636C13.0491 27.4164 13.3091 26.4764 13.7855 25.4436L15.4109 26.1909C15.0291 27.0127 14.8218 27.7345 14.7891 28.3564C14.7855 28.4182 14.7836 28.48 14.7836 28.5418C14.7836 28.9309 14.8655 29.2491 15.0291 29.4964C15.1891 29.7509 15.4364 29.9327 15.7709 30.0418C15.8982 30.0854 16.0364 30.1164 16.1855 30.1345C16.3018 30.1491 16.4218 30.1564 16.5455 30.1564H17.3691C18.0491 30.1564 18.5109 30.0309 18.7545 29.78C18.9618 29.5654 19.0655 29.1891 19.0655 28.6509V25.2527H20.8491V26.6818ZM16.0436 24.8436L17.1782 23.6982L18.3345 24.8545L17.1836 26L16.0436 24.8436Z" fill="white"/>
<path d="M25.4384 27.2327C25.6239 27.2327 25.762 27.1945 25.853 27.1182C25.9766 27.0164 26.0384 26.8364 26.0384 26.5782V25.2527H27.8275V26.5782C27.8275 26.8145 27.8602 26.9745 27.9257 27.0582C28.0093 27.1745 28.1802 27.2327 28.4384 27.2327C28.6239 27.2327 28.762 27.1945 28.853 27.1182C28.973 27.0164 29.033 26.8364 29.033 26.5782V25.2527H30.822V26.5782C30.822 26.8036 30.8639 26.9636 30.9475 27.0582C31.0457 27.1745 31.2257 27.2327 31.4875 27.2327H32.1857V29.0218H31.4875C30.7384 29.0218 30.2166 28.8564 29.922 28.5254C29.4893 28.8564 28.9948 29.0218 28.4384 29.0218C27.7257 29.0218 27.222 28.8564 26.9275 28.5254C26.4948 28.8564 26.0075 29.0218 25.4657 29.0218C24.8911 29.0218 24.3875 28.8564 23.9548 28.5254C23.6602 28.8564 23.1384 29.0218 22.3893 29.0218H21.6039V27.2327H22.3893C22.6511 27.2327 22.8311 27.1745 22.9293 27.0582C23.013 26.9636 23.0548 26.8036 23.0548 26.5782V25.2527H24.8439V26.5782C24.8439 26.8364 24.9057 27.0164 25.0293 27.1182C25.1166 27.1945 25.253 27.2327 25.4384 27.2327ZM26.8239 22.9945L25.7439 24.0854L24.6639 23.0054L25.7439 21.9145L26.8239 22.9945ZM29.1911 22.9782L28.122 24.0582L27.0148 22.9891L28.1057 21.8982L29.1911 22.9782ZM27.882 21.5709L26.933 22.52L25.9948 21.5818L26.9439 20.6327L27.882 21.5709Z" fill="white"/>
<path d="M36.3509 26.7364C36.3509 26.9109 36.3927 27.0345 36.4764 27.1073C36.5709 27.1909 36.7382 27.2327 36.9782 27.2327H37.7745V29.0218H36.9782C36.7418 29.0218 36.5182 28.9964 36.3073 28.9454C36.14 28.9054 35.9836 28.8491 35.8382 28.7764C35.6709 28.6964 35.5455 28.6164 35.4618 28.5364C35.3782 28.6164 35.2436 28.6964 35.0582 28.7764C34.6909 28.94 34.2545 29.0218 33.7491 29.0218H31.9164V27.2327H33.8745C34.1364 27.2327 34.32 27.1891 34.4255 27.1018C34.52 27.0254 34.5673 26.9036 34.5673 26.7364V25.2527H36.3509V26.7364ZM35.6364 32.1745L34.5673 31.0945L35.6255 30.0036L36.7164 31.0945L35.6364 32.1745ZM33.3345 32.18L32.2655 31.1L33.3182 30.0091L34.4091 31.1L33.3345 32.18Z" fill="white"/>
<path d="M43.4735 26.9327C43.728 27.1327 44.0826 27.2327 44.5371 27.2327V29.0218C43.6826 29.0218 42.9644 28.7964 42.3826 28.3454C42.2517 28.2473 42.1044 28.1164 41.9408 27.9527C41.7153 28.2509 41.4226 28.4927 41.0626 28.6782C40.6226 28.9073 40.1408 29.0218 39.6171 29.0218H37.5062V27.2327H39.6171C39.8244 27.2327 40.0208 27.1909 40.2062 27.1073C40.3917 27.02 40.5135 26.9145 40.5717 26.7909C40.6008 26.7327 40.6153 26.6654 40.6153 26.5891C40.6153 26.4036 40.5226 26.1709 40.3371 25.8909L40.1517 25.6454C39.908 25.3436 39.5898 24.9436 39.1971 24.4454C39.0553 24.2673 38.928 24.1054 38.8153 23.96C38.7135 23.8291 38.6608 23.7618 38.6571 23.7582L38.968 22.4054L43.6971 20.12L44.4771 21.7291L40.7517 23.5291C40.9335 23.7545 41.4935 24.4836 42.4317 25.7164C42.9044 26.3564 43.2517 26.7618 43.4735 26.9327Z" fill="white"/>
<path d="M48.7025 26.7364C48.7025 26.9109 48.7443 27.0345 48.8279 27.1073C48.9225 27.1909 49.0897 27.2327 49.3297 27.2327H50.1261V29.0218H49.3297C49.0934 29.0218 48.8697 28.9964 48.6588 28.9454C48.4916 28.9054 48.3352 28.8491 48.1897 28.7764C48.0225 28.6964 47.897 28.6164 47.8134 28.5364C47.7297 28.6164 47.5952 28.6964 47.4097 28.7764C47.0425 28.94 46.6061 29.0218 46.1007 29.0218H44.2679V27.2327H46.2261C46.4879 27.2327 46.6716 27.1891 46.777 27.1018C46.8716 27.0254 46.9188 26.9036 46.9188 26.7364V25.2527H48.7025V26.7364ZM47.9879 32.1745L46.9188 31.0945L47.977 30.0036L49.0679 31.0945L47.9879 32.1745ZM45.6861 32.18L44.617 31.1L45.6697 30.0091L46.7607 31.1L45.6861 32.18Z" fill="white"/>
<path d="M52.8741 26.5782C52.8741 27.0145 53.1123 27.2327 53.5887 27.2327V29.0218C53.2541 29.0218 52.936 28.9673 52.6341 28.8582C52.3832 28.7673 52.165 28.6473 51.9796 28.4982C51.525 28.8473 50.9614 29.0218 50.2887 29.0218H49.8578V27.2327H50.2887C50.6305 27.2327 50.8632 27.1473 50.9869 26.9764C51.0305 26.9182 51.0596 26.8473 51.0741 26.7636C51.0778 26.7309 51.0814 26.6964 51.085 26.66V21.1564H52.8741V26.5782Z" fill="white"/>
<path d="M55.813 27.2327C55.9621 27.2327 56.0366 27.3018 56.0366 27.44V28.8036C56.0366 28.9491 55.9621 29.0218 55.813 29.0218H53.533C53.3875 29.0218 53.3148 28.9491 53.3148 28.8036V27.44C53.3148 27.3018 53.3875 27.2327 53.533 27.2327H55.813Z" fill="white"/>
<path d="M57.7322 27.2327C57.8813 27.2327 57.9558 27.3018 57.9558 27.44V28.8036C57.9558 28.9491 57.8813 29.0218 57.7322 29.0218H55.9822C55.8367 29.0218 55.764 28.9491 55.764 28.8036V27.44C55.764 27.3018 55.8367 27.2327 55.9822 27.2327H57.7322Z" fill="white"/>
<path d="M60.1814 27.2327C60.3305 27.2327 60.4051 27.3018 60.4051 27.44V28.8036C60.4051 28.9491 60.3305 29.0218 60.1814 29.0218H57.9014C57.756 29.0218 57.6832 28.9491 57.6832 28.8036V27.44C57.6832 27.3018 57.756 27.2327 57.9014 27.2327H60.1814Z" fill="white"/>
<path d="M64.867 26.2509C64.8961 26.4254 64.9106 26.5927 64.9106 26.7527C64.9106 27.2473 64.7688 27.6909 64.4852 28.0836C64.0306 28.7091 63.2906 29.0218 62.2652 29.0218H60.1325V27.2327H62.227C62.5543 27.2327 62.7852 27.1891 62.9197 27.1018C63.0579 27.0182 63.127 26.8854 63.127 26.7036C63.127 26.6491 63.1197 26.5891 63.1052 26.5236C63.0688 26.3382 63.0325 26.1491 62.9961 25.9564C62.9815 25.8836 62.967 25.8054 62.9525 25.7218L62.9306 25.6182L62.9143 25.5145C62.8597 25.2164 62.8179 25.0036 62.7888 24.8764L64.4961 24.3582C64.6052 24.8709 64.7288 25.5018 64.867 26.2509ZM61.4143 32.0491L60.3343 30.9909L61.4143 29.8782L62.4943 30.9909L61.4143 32.0491ZM63.7652 32.0709L62.6743 30.9909L63.7815 29.9109L64.8506 30.9909L63.7652 32.0709ZM62.6143 33.3309L61.6652 32.3818L62.6034 31.4436L63.5525 32.3927L62.6143 33.3309Z" fill="white"/>
<path d="M67.6541 29.0218H65.8651V21.1564H67.6541V29.0218Z" fill="white"/>
<path d="M72.2333 29.0818C71.2079 29.0818 70.5515 29.0564 70.2642 29.0054C69.7042 28.9109 69.277 28.64 68.9824 28.1927C68.797 27.9127 68.6806 27.5927 68.6333 27.2327C68.6188 27.1018 68.6115 26.9654 68.6115 26.8236C68.6115 26.6673 68.6206 26.5054 68.6388 26.3382C68.6642 26.1127 68.7315 25.7909 68.8406 25.3727C68.8733 25.2382 68.9097 25.1018 68.9497 24.9636C68.9642 24.9164 68.977 24.8727 68.9879 24.8327C68.9951 24.8 69.0006 24.78 69.0042 24.7727L70.7224 25.2582C70.537 25.92 70.4133 26.4618 70.3515 26.8836C70.3479 26.9127 70.3461 26.9418 70.3461 26.9709C70.3461 27.04 70.3588 27.1 70.3842 27.1509C70.4279 27.2454 70.5061 27.2927 70.6188 27.2927H76.5533C76.8806 27.2927 77.1115 27.2491 77.2461 27.1618C77.3842 27.0782 77.4533 26.9454 77.4533 26.7636C77.4533 26.7091 77.446 26.6491 77.4315 26.5836C77.3951 26.3982 77.3588 26.2091 77.3224 26.0164C77.3079 25.9436 77.2933 25.8654 77.2788 25.7818L77.257 25.6782L77.2406 25.5745C77.2151 25.4364 77.1933 25.3164 77.1751 25.2145L78.8879 24.7345C78.9788 25.1854 79.0806 25.7109 79.1933 26.3109C79.2224 26.4854 79.237 26.6527 79.237 26.8127C79.237 27.3073 79.0951 27.7509 78.8115 28.1436C78.357 28.7691 77.617 29.0818 76.5915 29.0818H72.2333ZM72.8279 30.8436L73.9624 29.6982L75.1188 30.8545L73.9733 32L72.8279 30.8436Z" fill="white"/>
<path d="M83.2146 27.2382V26.6764C83.2146 26.3418 83.1437 26.0764 83.0019 25.88C82.8601 25.6873 82.6674 25.5909 82.4237 25.5909C82.1765 25.5909 81.9801 25.6873 81.8346 25.88C81.7001 26.0582 81.6328 26.2891 81.6328 26.5727C81.6328 26.6054 81.6346 26.64 81.6383 26.6764C81.6492 26.8691 81.7346 27.0145 81.8946 27.1127C82.0328 27.1964 82.2092 27.2382 82.4237 27.2382H83.2146ZM82.4237 23.8018C83.2274 23.8018 83.8674 24.0945 84.3437 24.68C84.7837 25.2145 85.0037 25.88 85.0037 26.6764V28.6782C85.0037 29.9436 84.4819 30.8473 83.4383 31.3891C83.0347 31.6 82.5546 31.7527 81.9983 31.8473C81.5656 31.9236 81.0928 31.9618 80.5801 31.9618V30.1727C81.4892 30.1727 82.1728 30.0454 82.631 29.7909C83.0019 29.5873 83.1874 29.3309 83.1874 29.0218H82.4237C81.7728 29.0218 81.2219 28.8473 80.771 28.4982C80.2219 28.0764 79.9474 27.4691 79.9474 26.6764C79.9474 25.9236 80.1292 25.2854 80.4928 24.7618C80.9365 24.1218 81.5801 23.8018 82.4237 23.8018Z" fill="white"/>
<path d="M113.677 25.6894L118.53 13.6523L115.313 13.6525L111.993 21.4311L109.632 13.6525H107.159L104.624 21.4311L102.836 17.8864L101.219 22.8705L102.861 25.6894H106.028L108.318 18.7136L110.502 25.6894H113.677Z" fill="white"/>
<path d="M116.53 24.1918L117.453 21.8562H120.12L118.854 18.3132L120.437 14.3106L124.971 26.3477H121.627L120.853 24.1918H116.53Z" fill="white"/>
<path d="M96.0542 21.5575H98.036C98.6364 21.5575 99.1709 21.4906 99.6397 21.3566L101.585 15.3644C101.476 15.1916 101.351 15.0278 101.211 14.8738C100.475 14.0596 99.3993 13.6528 97.9827 13.6528H93.0001V25.6899H96.0542V21.5575ZM98.6774 16.4218C98.9648 16.711 99.1083 17.0981 99.1083 17.5826C99.1083 18.0712 98.982 18.4585 98.7294 18.7449C98.4523 19.063 97.9425 19.2222 97.1996 19.2222H96.0542V15.9884H97.208C97.9004 15.9884 98.3903 16.1327 98.6774 16.4218Z" fill="white"/>
</svg>
